<svg width="128" height="128" version="1.1" viewBox="0 0 33.867 33.867" xmlns="http://www.w3.org/2000/svg">
 <g transform="translate(0 -263.13)">
  <path d="m4.7868 264.72h24.292c1.7593 0 3.2006 1.4396 3.2006 3.2004v24.29c0 1.7614-1.4413 3.2009-3.2006 3.2009h-24.292c-1.7611 0-3.1994-1.4396-3.1994-3.2009v-24.29c0-1.7608 1.4383-3.2004 3.1994-3.2004" fill="#737370" stroke-width=".26458"/>
  <g transform="matrix(.40786 -.16697 .16697 .40786 -177.29 46.916)" fill-rule="evenodd" stroke="#737370" stroke-miterlimit="0" stroke-width="1.2007">
   <path d="m184.29 636.06 17.857 10.647 29.077-6.4666-19.422-9.5808z" fill="#ebeded"/>
   <path d="m202.14 646.71v33.668l29.077-8.2729v-31.861z" fill="#ebeded"/>
   <path d="m184.29 636.06 17.857 10.647v33.668l-17.857-13.621z" fill="#ebeded"/>
  </g>
 </g>
</svg>
